
      <svg data-logo="logo" xmlns="http://www.w3.org/2000/svg" viewBox="0 0 141 43">
        <g id="logogram" transform="translate(0, 1) rotate(0) "><path d="M18.529 14.2867C19.7573 13.9362 19.8794 10.5388 18.8016 6.69839C17.7239 2.85797 15.8544 0.0288177 14.6261 0.379292C13.3977 0.729766 13.2757 4.12714 14.3534 7.96759C15.4312 11.8079 17.3007 14.6371 18.529 14.2867Z" fill="black"/><path d="M26.1248 8.08707C27.2775 4.26882 27.2219 0.869674 26.0007 0.49485C24.7794 0.120017 22.855 2.91144 21.7023 6.72968C20.5497 10.5479 20.6052 13.9471 21.8265 14.3219C23.0477 14.6967 24.9722 11.9053 26.1248 8.08707Z" fill="black"/><path d="M15.7317 16.0579C16.5771 15.0934 14.858 12.1689 11.8921 9.5258C8.92614 6.88272 5.83646 5.52194 4.99109 6.48642C4.14571 7.45092 5.86478 10.3754 8.83075 13.0185C11.7967 15.6616 14.8864 17.0224 15.7317 16.0579Z" fill="black"/><path d="M31.5523 13.2463C34.5689 10.6622 36.3444 7.77208 35.5178 6.79115C34.6913 5.81019 31.5758 7.10985 28.5592 9.6939C25.5426 12.278 23.7672 15.1681 24.5937 16.1491C25.4202 17.13 28.5357 15.8304 31.5523 13.2463Z" fill="black"/><path d="M14.3271 19.0886C14.5213 17.8164 11.5072 16.2928 7.5951 15.6857C3.68285 15.0785 0.353953 15.6177 0.15976 16.8899C-0.0344332 18.1621 2.97961 19.6855 6.89183 20.2927C10.804 20.8999 14.1329 20.3607 14.3271 19.0886Z" fill="black"/><path d="M33.3469 20.5473C37.2702 20.018 40.3134 18.5548 40.1441 17.2789C39.9749 16.0031 36.6572 15.398 32.7338 15.9271C28.8106 16.4564 25.7673 17.9197 25.9366 19.1955C26.1059 20.4713 29.4235 21.0765 33.3469 20.5473Z" fill="black"/><path d="M9.1521 27.4532C12.7688 25.8311 15.28 23.5628 14.7611 22.3867C14.2424 21.2106 10.89 21.5722 7.2733 23.1943C3.65667 24.8164 1.1454 27.0847 1.66421 28.2608C2.18302 29.4369 5.53546 29.0753 9.1521 27.4532Z" fill="black"/><path d="M38.408 28.6255C38.9497 27.46 36.4833 25.1421 32.8991 23.4484C29.3149 21.7547 25.9702 21.3266 25.4285 22.4921C24.8868 23.6577 27.3532 25.9755 30.9374 27.6692C34.5215 29.3629 37.8663 29.7911 38.408 28.6255Z" fill="black"/><path d="M14.9029 32.2399C17.0755 28.9036 17.9717 25.6262 16.9047 24.9198C15.8375 24.2133 13.2112 26.3451 11.0387 29.6814C8.86604 33.0177 7.96985 36.2949 9.03689 37.0015C10.104 37.708 12.7302 35.5762 14.9029 32.2399Z" fill="black"/><path d="M30.8687 37.2253C31.9494 36.5402 31.1175 33.2456 29.0106 29.8668C26.9036 26.488 24.3195 24.3044 23.2388 24.9895C22.1582 25.6746 22.9901 28.9692 25.097 32.348C27.2039 35.7268 29.7881 37.9105 30.8687 37.2253Z" fill="black"/><path d="M22.3061 33.1463C22.3448 29.1553 21.3414 25.9098 20.0649 25.8972C18.7884 25.8846 17.7222 29.1098 17.6835 33.1007C17.6448 37.0918 18.6483 40.3374 19.9247 40.3499C21.2013 40.3625 22.2675 37.1374 22.3061 33.1463Z" fill="black"/></g>
        <g id="logotype" transform="translate(46, 10.5)"><path fill="black" d="M13.61 22.36L13.61 22.36Q11.39 22.36 9.75 21.34Q8.12 20.32 7.22 18.45Q6.32 16.57 6.32 14.05L6.32 14.05Q6.32 11.53 7.22 9.67Q8.12 7.81 9.75 6.78Q11.39 5.74 13.61 5.74L13.61 5.74Q15.44 5.74 16.87 6.38Q18.29 7.03 19.19 8.26Q20.09 9.49 20.36 11.26L20.36 11.26L17.72 11.44Q17.45 9.85 16.34 9.00Q15.23 8.14 13.61 8.14L13.61 8.14Q11.42 8.14 10.19 9.71Q8.96 11.29 8.96 14.05L8.96 14.05Q8.96 16.81 10.19 18.39Q11.42 19.96 13.61 19.96L13.61 19.96Q15.23 19.96 16.34 19.06Q17.45 18.16 17.72 16.36L17.72 16.36L20.36 16.54Q20.09 18.31 19.19 19.62Q18.29 20.92 16.87 21.64Q15.44 22.36 13.61 22.36ZM28.79 22.36L28.79 22.36Q26.60 22.36 24.95 21.34Q23.30 20.32 22.40 18.45Q21.50 16.57 21.50 14.05L21.50 14.05Q21.50 11.50 22.40 9.64Q23.30 7.78 24.95 6.76Q26.60 5.74 28.79 5.74L28.79 5.74Q30.98 5.74 32.61 6.76Q34.25 7.78 35.15 9.64Q36.05 11.50 36.05 14.05L36.05 14.05Q36.05 16.57 35.15 18.45Q34.25 20.32 32.61 21.34Q30.98 22.36 28.79 22.36ZM28.79 19.96L28.79 19.96Q30.98 19.96 32.20 18.39Q33.41 16.81 33.41 14.05L33.41 14.05Q33.41 11.29 32.20 9.71Q30.98 8.14 28.79 8.14L28.79 8.14Q26.60 8.14 25.37 9.71Q24.14 11.29 24.14 14.05L24.14 14.05Q24.14 16.81 25.37 18.39Q26.60 19.96 28.79 19.96ZM44.21 22.36L44.21 22.36Q42.14 22.36 40.63 21.34Q39.11 20.32 38.30 18.46Q37.49 16.60 37.49 14.05L37.49 14.05Q37.49 11.50 38.30 9.64Q39.11 7.78 40.63 6.76Q42.14 5.74 44.21 5.74L44.21 5.74Q45.80 5.74 47.12 6.42Q48.44 7.09 49.10 8.32L49.10 8.32L49.10 0.70L51.62 0.70L51.62 22L49.34 22L49.25 19.60Q48.59 20.89 47.24 21.63Q45.89 22.36 44.21 22.36ZM44.72 19.96L44.72 19.96Q46.13 19.96 47.11 19.24Q48.08 18.52 48.59 17.19Q49.10 15.85 49.10 14.05L49.10 14.05Q49.10 12.19 48.59 10.87Q48.08 9.55 47.11 8.85Q46.13 8.14 44.72 8.14L44.72 8.14Q42.62 8.14 41.38 9.71Q40.13 11.29 40.13 14.05L40.13 14.05Q40.13 16.78 41.38 18.37Q42.62 19.96 44.72 19.96ZM60.14 22.36L60.14 22.36Q57.77 22.36 56.34 20.75Q54.92 19.15 54.92 16.33L54.92 16.33L54.92 6.10L57.44 6.10L57.44 15.64Q57.44 17.95 58.26 19.05Q59.09 20.14 60.80 20.14L60.80 20.14Q62.69 20.14 63.77 18.93Q64.85 17.71 64.85 15.58L64.85 15.58L64.85 6.10L67.37 6.10L67.37 22L64.97 22L64.97 18.07L65.36 18.28Q64.88 20.23 63.53 21.30Q62.18 22.36 60.14 22.36ZM73.79 22L71.27 22L71.27 6.10L73.49 6.10L73.61 10.12L73.37 10.03Q73.67 7.99 74.67 7.04Q75.68 6.10 77.36 6.10L77.36 6.10L78.92 6.10L78.92 8.50L77.39 8.50Q76.19 8.50 75.39 8.94Q74.60 9.37 74.19 10.22Q73.79 11.08 73.79 12.40L73.79 12.40L73.79 22ZM84.83 22.36L84.83 22.36Q82.37 22.36 80.91 21.22Q79.46 20.08 79.46 18.04L79.46 18.04Q79.46 16 80.66 14.83Q81.86 13.66 84.47 13.18L84.47 13.18L90.11 12.13Q90.11 10.12 89.16 9.13Q88.22 8.14 86.33 8.14L86.33 8.14Q84.68 8.14 83.72 8.88Q82.76 9.61 82.40 10.99L82.40 10.99L79.73 10.78Q80.18 8.53 81.90 7.13Q83.63 5.74 86.33 5.74L86.33 5.74Q89.39 5.74 91.01 7.46Q92.63 9.19 92.63 12.22L92.63 12.22L92.63 18.79Q92.63 19.33 92.82 19.55Q93.02 19.78 93.47 19.78L93.47 19.78L94.10 19.78L94.10 22Q93.98 22.03 93.71 22.05Q93.44 22.06 93.14 22.06L93.14 22.06Q92.06 22.06 91.38 21.71Q90.71 21.37 90.41 20.64Q90.11 19.90 90.11 18.70L90.11 18.70L90.41 18.76Q90.20 19.78 89.39 20.61Q88.58 21.43 87.38 21.89Q86.18 22.36 84.83 22.36ZM85.07 20.14L85.07 20.14Q86.66 20.14 87.78 19.52Q88.91 18.91 89.51 17.84Q90.11 16.78 90.11 15.46L90.11 15.46L90.11 14.32L84.95 15.28Q83.33 15.58 82.71 16.20Q82.10 16.81 82.10 17.80L82.10 17.80Q82.10 18.91 82.89 19.52Q83.69 20.14 85.07 20.14Z"/></g>

      </svg>

